<svg width="14" height="14" viewBox="0 0 14 14" fill="none" xmlns="http://www.w3.org/2000/svg">
<g clip-path="url(#clip0_59_1506)">
<path d="M7 13C8.18669 13 9.34672 12.6481 10.3334 11.9888C11.3201 11.3295 12.0891 10.3925 12.5433 9.2961C12.9974 8.19974 13.1162 6.99335 12.8847 5.82946C12.6532 4.66557 12.0818 3.59648 11.2426 2.75736C10.4035 1.91825 9.33443 1.3468 8.17054 1.11529C7.00665 0.88378 5.80025 1.0026 4.7039 1.45673C3.60754 1.91085 2.67047 2.67989 2.01118 3.66658C1.35189 4.65328 1 5.81331 1 7C1 7.992 1.24 8.92733 1.66667 9.75133L1 13L4.24867 12.3333C5.07267 12.76 6.00867 13 7 13Z" stroke="white" stroke-width="1.7" stroke-linecap="round" stroke-linejoin="round"/>
</g>
<defs>
<clipPath id="clip0_59_1506">
<rect width="14" height="14" fill="white"/>
</clipPath>
</defs>
</svg>
