<svg width="12" height="12" viewBox="0 0 12 12" fill="none" xmlns="http://www.w3.org/2000/svg">
<g clip-path="url(#clip0_23_25)">
<path d="M-2.5 -1.00006L-0.914974 -0.73589C-0.0984555 -0.599804 0.500001 0.106649 0.500003 0.934431V0.934431C0.500005 2.00302 1.47762 2.80448 2.52546 2.59491L3.00001 2.5V2.5C3.98548 2.3029 4.74992 3.35015 4.26186 4.22867L4.22391 4.29697C3.72978 5.18641 4.48225 6.25296 5.48589 6.08569L6.39601 5.934C7.44733 5.75878 8.23556 6.876 7.71795 7.8077V7.8077C7.21198 8.71845 7.95472 9.81814 8.98853 9.6889L9.32468 9.64687C10.0081 9.56144 10.6568 9.97025 10.8746 10.6236L11.0498 11.1493C11.3221 11.9662 12.0614 12.5374 12.9206 12.5947L19 13" stroke="#9E9E9E" stroke-width="1.4"/>
</g>
<defs>
<clipPath id="clip0_23_25">
<rect width="12" height="12" rx="1" fill="white"/>
</clipPath>
</defs>
</svg>
