<svg width="14" height="14" viewBox="0 0 14 14" fill="none" xmlns="http://www.w3.org/2000/svg">
<g clip-path="url(#clip0_59_1464)">
<g clip-path="url(#clip1_59_1464)">
<path d="M12.6 1C12.9532 0.999885 13.2934 1.13752 13.5524 1.3853C13.8114 1.63309 13.97 1.97272 13.9965 2.33611L14 2.44444V12.5556C14.0001 12.92 13.8667 13.271 13.6266 13.5382C13.3864 13.8054 13.0572 13.9691 12.705 13.9964L12.6 14H1.4C1.0468 14.0001 0.706603 13.8625 0.447616 13.6147C0.18863 13.3669 0.0299904 13.0273 0.00350015 12.6639L7.01876e-08 12.5556V2.44444C-0.000111705 2.08003 0.133285 1.72904 0.373448 1.46183C0.613611 1.19462 0.942791 1.03094 1.295 1.00361L1.4 1H12.6ZM5.5153 7.53611L1.5554 11.6217C1.50932 11.6694 1.45702 11.7103 1.4 11.7431V12.5556H12.6V11.7431C12.543 11.7103 12.4907 11.6694 12.4446 11.6217L10.465 9.58L9.9701 10.0906L10.115 10.2401C10.18 10.3072 10.2315 10.3869 10.2667 10.4745C10.3018 10.5622 10.3199 10.6561 10.3199 10.751C10.3199 10.8458 10.3017 10.9398 10.2665 11.0274C10.2313 11.115 10.1797 11.1946 10.1146 11.2617C10.0496 11.3287 9.97241 11.3819 9.88745 11.4182C9.8025 11.4545 9.71145 11.4731 9.6195 11.4731C9.52756 11.4731 9.43652 11.4543 9.35159 11.418C9.26666 11.3817 9.18949 11.3284 9.1245 11.2613L5.5153 7.53611ZM12.6 2.44444H1.4V9.73889L4.8965 6.13211C5.04892 5.97489 5.25221 5.88125 5.46742 5.86912C5.68262 5.85699 5.89459 5.92724 6.0627 6.06639L6.1334 6.13139L8.9796 9.06867L9.8462 8.17456C9.99862 8.01734 10.2019 7.92369 10.4171 7.91156C10.6323 7.89943 10.8443 7.96968 11.0124 8.10883L11.0838 8.17456L12.6 9.73961V2.44444ZM9.45 3.88889C9.72848 3.88889 9.99555 4.00303 10.1925 4.20619C10.3894 4.40935 10.5 4.6849 10.5 4.97222C10.5 5.25954 10.3894 5.53509 10.1925 5.73825C9.99555 5.94142 9.72848 6.05556 9.45 6.05556C9.17152 6.05556 8.90445 5.94142 8.70754 5.73825C8.51062 5.53509 8.4 5.25954 8.4 4.97222C8.4 4.6849 8.51062 4.40935 8.70754 4.20619C8.90445 4.00303 9.17152 3.88889 9.45 3.88889Z" fill="white"/>
</g>
</g>
<defs>
<clipPath id="clip0_59_1464">
<rect width="14" height="14" fill="white"/>
</clipPath>
<clipPath id="clip1_59_1464">
<rect y="1" width="14" height="14" rx="1" fill="white"/>
</clipPath>
</defs>
</svg>
