<svg width="12" height="12" viewBox="0 0 12 12" fill="none" xmlns="http://www.w3.org/2000/svg">
<path d="M10.8 1C11.1027 0.999902 11.3943 1.11636 11.6163 1.32603C11.8383 1.53569 11.9743 1.82307 11.997 2.13056L12 2.22222V10.7778C12.0001 11.0861 11.8858 11.3831 11.6799 11.6092C11.474 11.8353 11.1919 11.9738 10.89 11.9969L10.8 12H1.2C0.897254 12.0001 0.60566 11.8836 0.383671 11.674C0.161682 11.4643 0.0257061 11.1769 0.00300013 10.8694L6.01608e-08 10.7778V2.22222C-9.57475e-05 1.91387 0.114244 1.61688 0.320098 1.39078C0.525952 1.16468 0.808107 1.02618 1.11 1.00306L1.2 1H10.8ZM4.7274 6.53056L1.3332 9.98761C1.29371 10.028 1.24887 10.0625 1.2 10.0903V10.7778H10.8V10.0903C10.7511 10.0625 10.7063 10.028 10.6668 9.98761L8.97 8.26L8.5458 8.69206L8.67 8.81856C8.72571 8.87533 8.76989 8.94273 8.80002 9.0169C8.83015 9.09107 8.84565 9.17056 8.84562 9.25083C8.84559 9.3311 8.83004 9.41057 8.79986 9.48472C8.76967 9.55887 8.72545 9.62623 8.6697 9.68297C8.61395 9.73971 8.54778 9.78471 8.47496 9.8154C8.40214 9.84609 8.3241 9.86187 8.24529 9.86185C8.16648 9.86182 8.08845 9.84598 8.01565 9.81524C7.94285 9.78449 7.87671 9.73945 7.821 9.68267L4.7274 6.53056ZM10.8 2.22222H1.2V8.39444L4.197 5.34256C4.32764 5.20953 4.5019 5.13029 4.68636 5.12002C4.87082 5.10976 5.05251 5.1692 5.1966 5.28694L5.2572 5.34194L7.6968 7.82733L8.4396 7.07078C8.57024 6.93775 8.7445 6.85851 8.92896 6.84825C9.11342 6.83798 9.29511 6.89742 9.4392 7.01517L9.5004 7.07078L10.8 8.39506V2.22222ZM8.1 3.44444C8.33869 3.44444 8.56761 3.54102 8.73639 3.71293C8.90518 3.88484 9 4.118 9 4.36111C9 4.60423 8.90518 4.83738 8.73639 5.00929C8.56761 5.1812 8.33869 5.27778 8.1 5.27778C7.86131 5.27778 7.63239 5.1812 7.4636 5.00929C7.29482 4.83738 7.2 4.60423 7.2 4.36111C7.2 4.118 7.29482 3.88484 7.4636 3.71293C7.63239 3.54102 7.86131 3.44444 8.1 3.44444Z" fill="#9E9E9E"/>
</svg>
