<svg width="94" height="21" viewBox="0 0 94 21" fill="none" xmlns="http://www.w3.org/2000/svg">
<path d="M93.6004 0.851515C93.6388 0.912887 93.6656 1.01645 93.681 1.16221C93.704 1.3003 93.7155 1.46524 93.7155 1.65703C93.7155 2.01759 93.6618 2.40117 93.5544 2.80776C93.447 3.20668 93.2897 3.64012 93.0826 4.10808C92.8831 4.56837 92.6376 5.06702 92.3461 5.60403C92.0546 6.13337 91.7247 6.70873 91.3565 7.33013C90.7965 8.27373 90.2595 9.18664 89.7455 10.0689C89.2392 10.9511 88.7904 11.7796 88.3991 12.5544C88.0079 13.3293 87.6972 14.0466 87.467 14.7063C87.2369 15.3661 87.1218 15.9414 87.1218 16.4324C87.1218 16.6242 87.1563 16.7776 87.2254 16.8927C87.3021 17.0078 87.4402 17.0653 87.6396 17.0653C87.9005 17.0653 88.1613 16.9694 88.4221 16.7776C88.683 16.5858 88.9285 16.3404 89.1586 16.0412C89.3964 15.742 89.6189 15.4121 89.826 15.0515C90.0408 14.6833 90.2288 14.3266 90.3899 13.9814C90.4513 13.8586 90.5241 13.7972 90.6085 13.7972C90.6546 13.7972 90.6967 13.8126 90.7351 13.8433C90.7735 13.874 90.7926 13.92 90.7926 13.9814C90.7926 14.0274 90.7773 14.0811 90.7466 14.1425C90.6392 14.3803 90.5126 14.6449 90.3669 14.9365C90.2211 15.228 90.0562 15.5233 89.8721 15.8225C89.6956 16.114 89.5 16.4017 89.2852 16.6856C89.0704 16.9694 88.8402 17.2226 88.5947 17.4451C88.3569 17.6599 88.1038 17.8325 87.8353 17.9629C87.5668 18.101 87.2868 18.17 86.9952 18.17C86.6577 18.17 86.3777 18.0588 86.1552 17.8363C85.9327 17.6138 85.8215 17.2226 85.8215 16.6626C85.8215 16.5091 85.8253 16.348 85.833 16.1792C85.8483 16.0028 85.8752 15.8264 85.9135 15.6499C85.6987 15.9721 85.4686 16.2828 85.2231 16.582C84.9853 16.8812 84.736 17.1497 84.4751 17.3875C84.222 17.6253 83.9611 17.8171 83.6926 17.9629C83.4318 18.101 83.1748 18.17 82.9216 18.17C82.7836 18.17 82.634 18.1355 82.4729 18.0664C82.3194 18.0051 82.1737 17.8977 82.0356 17.7442C81.8975 17.5908 81.7824 17.3914 81.6904 17.1459C81.5983 16.8927 81.5523 16.582 81.5523 16.2138C81.5523 15.7688 81.652 15.2472 81.8515 14.6488C82.0433 14.0504 82.3923 13.3715 82.8986 12.612C83.2208 12.144 83.6121 11.6837 84.0724 11.2311C84.5403 10.7785 85.0198 10.3757 85.5108 10.0228C86.0094 9.66228 86.4889 9.37459 86.9492 9.15979C87.4095 8.94499 87.7969 8.83759 88.1114 8.83759C88.1345 8.83759 88.1651 8.84909 88.2035 8.87211C88.2419 8.89512 88.2802 8.91814 88.3186 8.94115C88.8863 7.6063 89.5077 6.31365 90.1828 5.06319C90.8579 3.80506 91.602 2.65433 92.4152 1.611C92.607 1.37318 92.7988 1.17755 92.9905 1.02412C93.1823 0.863022 93.3358 0.782471 93.4508 0.782471C93.5275 0.782471 93.5774 0.805485 93.6004 0.851515ZM87.467 11.1045C87.5514 10.8667 87.6396 10.6327 87.7317 10.4026C87.8238 10.1648 87.9158 9.92694 88.0079 9.68913C87.8698 9.74283 87.7087 9.81571 87.5246 9.90777C87.3481 9.99982 87.1487 10.1187 86.9262 10.2645C86.7037 10.4103 86.4659 10.5905 86.2127 10.8053C85.9596 11.0125 85.6949 11.2618 85.4187 11.5533C84.851 12.1517 84.3907 12.7961 84.0379 13.4865C83.685 14.1693 83.5085 14.8444 83.5085 15.5118C83.5085 15.8187 83.5622 16.022 83.6696 16.1217C83.777 16.2214 83.8959 16.2713 84.0263 16.2713C84.1874 16.2713 84.3639 16.2099 84.5557 16.0872C84.7475 15.9568 84.9431 15.788 85.1426 15.5809C85.3497 15.3661 85.5607 15.1167 85.7755 14.8329C85.9903 14.5414 86.2012 14.2345 86.4084 13.9123C86.5848 13.3906 86.7689 12.8843 86.9607 12.3933C87.1602 11.9024 87.3289 11.4728 87.467 11.1045Z" fill="url(#paint0_linear_21_207)"/>
<path d="M82.6225 14.1425C82.5151 14.3496 82.377 14.5912 82.2082 14.8674C82.0394 15.1359 81.8476 15.4159 81.6328 15.7075C81.418 15.9913 81.184 16.2751 80.9309 16.559C80.6854 16.8428 80.4284 17.096 80.1599 17.3185C79.8991 17.5333 79.6306 17.7097 79.3544 17.8478C79.0859 17.9859 78.825 18.0549 78.5719 18.0549C78.4108 18.0549 78.2497 18.0319 78.0886 17.9859C77.9351 17.9399 77.7932 17.8708 77.6628 17.7788C77.5401 17.679 77.4403 17.5563 77.3636 17.4105C77.2869 17.2648 77.2485 17.0883 77.2485 16.8812C77.2485 16.5974 77.3022 16.2982 77.4096 15.9836C77.5247 15.6614 77.6666 15.3392 77.8354 15.017C78.0119 14.6871 78.196 14.3649 78.3878 14.0504C78.5872 13.7359 78.7713 13.4367 78.9401 13.1528C79.1166 12.8613 79.2585 12.5966 79.3659 12.3588C79.481 12.121 79.5385 11.9139 79.5385 11.7374C79.5385 11.6684 79.4963 11.6147 79.4119 11.5763C79.3352 11.5303 79.2278 11.5073 79.0897 11.5073C79.0207 11.5073 78.9286 11.5188 78.8135 11.5418C78.7061 11.5648 78.5834 11.5917 78.4453 11.6224C78.3072 11.653 78.1576 11.6876 77.9965 11.7259C77.8431 11.7566 77.6897 11.7835 77.5362 11.8065C77.2984 12.3818 77.0606 12.9189 76.8228 13.4175C76.585 13.9162 76.3817 14.3074 76.2129 14.5912C76.1515 14.6986 76.1017 14.7754 76.0633 14.8214C76.0173 14.8598 75.9636 14.8789 75.9022 14.8789C75.7948 14.8789 75.7411 14.8291 75.7411 14.7293C75.7411 14.691 75.7488 14.6488 75.7641 14.6028C75.7718 14.5491 75.7871 14.4992 75.8101 14.4532C76.0326 14.0389 76.2436 13.617 76.443 13.1874C76.6502 12.7501 76.8496 12.309 77.0414 11.864C76.865 11.864 76.7384 11.8295 76.6617 11.7604C76.585 11.6837 76.5466 11.5687 76.5466 11.4152C76.5466 11.2541 76.585 11.0547 76.6617 10.8169C76.7461 10.5714 76.8496 10.3182 76.9724 10.0574C77.0951 9.78886 77.2332 9.5242 77.3866 9.26336C77.5401 8.99486 77.6935 8.75704 77.8469 8.54991C78.0004 8.33511 78.1384 8.1625 78.2612 8.03208C78.3916 7.894 78.4952 7.82495 78.5719 7.82495C78.6333 7.82495 78.6946 7.84797 78.756 7.894C78.8174 7.94002 78.8481 8.00523 78.8481 8.08962C78.8481 8.20469 78.8135 8.38497 78.7445 8.63046C78.6755 8.87595 78.5872 9.1598 78.4798 9.482C78.802 9.43597 79.082 9.40145 79.3199 9.37844C79.5654 9.34775 79.7533 9.33241 79.8837 9.33241C80.1983 9.33241 80.4591 9.39378 80.6662 9.51653C80.8733 9.6316 80.9769 9.78503 80.9769 9.97682C80.9769 10.0919 80.9347 10.2683 80.8503 10.5062C80.7659 10.7363 80.6624 11.0048 80.5396 11.3117C80.4169 11.6185 80.2826 11.9522 80.1369 12.3128C79.9911 12.6657 79.8569 13.0263 79.7341 13.3945C79.6114 13.755 79.5078 14.1079 79.4234 14.4532C79.339 14.7984 79.2968 15.1129 79.2968 15.3968C79.2968 15.6192 79.339 15.8072 79.4234 15.9606C79.5155 16.114 79.6536 16.1908 79.8377 16.1908C79.9758 16.1908 80.1292 16.1601 80.298 16.0987C80.4744 16.0297 80.6662 15.9146 80.8733 15.7535C81.0805 15.5847 81.2991 15.3584 81.5293 15.0746C81.7671 14.783 82.0126 14.4186 82.2657 13.9814C82.3271 13.8586 82.4 13.7972 82.4844 13.7972C82.5304 13.7972 82.5726 13.8126 82.611 13.8433C82.6493 13.874 82.6685 13.92 82.6685 13.9814C82.6685 14.0274 82.6531 14.0811 82.6225 14.1425Z" fill="url(#paint1_linear_21_207)"/>
<path d="M76.42 14.1425C76.2589 14.5721 76.0556 15.0209 75.8101 15.4888C75.5723 15.9568 75.3076 16.3864 75.0161 16.7777C74.7246 17.1612 74.4139 17.4796 74.084 17.7328C73.7542 17.9783 73.4243 18.101 73.0944 18.101C72.8719 18.101 72.6878 18.0473 72.5421 17.9399C72.3963 17.8248 72.2774 17.6867 72.1853 17.5256C72.1009 17.3569 72.0396 17.1766 72.0012 16.9848C71.9629 16.793 71.9437 16.6166 71.9437 16.4555C71.9437 16.21 71.9705 15.9261 72.0242 15.6039C72.0856 15.2817 72.2007 14.9135 72.3694 14.4992C72.1086 14.8521 71.8324 15.2127 71.5409 15.5809C71.2571 15.9415 70.9656 16.2675 70.6664 16.559C70.3748 16.8505 70.0795 17.0922 69.7803 17.284C69.4888 17.4681 69.2126 17.5602 68.9518 17.5602C68.829 17.5602 68.6986 17.5295 68.5605 17.4681C68.4224 17.3991 68.2959 17.3032 68.1808 17.1804C68.058 17.05 67.9583 16.8927 67.8816 16.7086C67.8049 16.5168 67.7665 16.2982 67.7665 16.0527C67.7665 15.6384 67.8624 15.182 68.0542 14.6833C68.246 14.177 68.4876 13.6707 68.7792 13.1644C69.0784 12.6581 69.4082 12.1671 69.7688 11.6914C70.1294 11.2158 70.4784 10.8015 70.816 10.4486C71.1228 10.1188 71.4105 9.83876 71.679 9.60861C71.9552 9.37847 72.2122 9.19435 72.45 9.05626C72.6955 8.9105 72.9256 8.80694 73.1404 8.74557C73.3552 8.67652 73.5624 8.63816 73.7618 8.63049C73.9459 8.63049 74.0994 8.65351 74.2221 8.69954C74.3449 8.73789 74.4408 8.7916 74.5098 8.86064C74.5789 8.92968 74.6249 9.01023 74.6479 9.10229C74.6786 9.19435 74.6939 9.29025 74.6939 9.38998C74.6939 9.49738 74.6632 9.63546 74.6019 9.80424C74.5405 9.97301 74.4561 10.1418 74.3487 10.3106C74.2413 10.4793 74.1147 10.6251 73.969 10.7478C73.8309 10.8629 73.6813 10.9204 73.5202 10.9204C73.4588 10.9204 73.4204 10.8974 73.4051 10.8514C73.3898 10.8054 73.3821 10.7478 73.3821 10.6788C73.3821 10.5484 73.3974 10.3949 73.4281 10.2185C73.4588 10.0421 73.4741 9.88863 73.4741 9.75821C73.4741 9.64314 73.4588 9.56258 73.4281 9.51656C73.4051 9.46285 73.3514 9.436 73.267 9.436C73.0676 9.52039 72.8528 9.68533 72.6226 9.93082C72.4001 10.1686 72.1777 10.4525 71.9552 10.7824C71.7327 11.1046 71.5179 11.4575 71.3108 11.841C71.1113 12.2169 70.931 12.5928 70.7699 12.9687C70.6165 13.337 70.4938 13.6899 70.4017 14.0274C70.3096 14.3573 70.2636 14.6335 70.2636 14.8559C70.2636 15.017 70.2866 15.1436 70.3327 15.2357C70.3787 15.3277 70.4362 15.3738 70.5053 15.3738C70.559 15.3738 70.6434 15.3239 70.7584 15.2242C70.8735 15.1244 71.0039 14.994 71.1497 14.8329C71.3031 14.6718 71.4604 14.4915 71.6215 14.2921C71.7826 14.085 71.9398 13.8817 72.0933 13.6822C72.2544 13.4827 72.4001 13.2948 72.5306 13.1183C72.661 12.9419 72.7645 12.7961 72.8412 12.6811C73.0407 12.3895 73.1788 12.1632 73.2555 12.0021C73.3399 11.841 73.4281 11.7605 73.5202 11.7605C73.5585 11.7605 73.6122 11.7912 73.6813 11.8525C73.758 11.9139 73.8309 11.9868 73.8999 12.0712C73.9766 12.1479 74.0418 12.2284 74.0955 12.3128C74.1492 12.3972 74.1761 12.4586 74.1761 12.4969C74.1761 12.6043 74.1262 12.7578 74.0265 12.9572C73.9268 13.149 73.7887 13.4597 73.6122 13.8893C73.4128 14.3496 73.2632 14.7792 73.1635 15.1782C73.0714 15.5771 73.0254 15.93 73.0254 16.2368C73.0254 16.3442 73.033 16.4516 73.0484 16.559C73.0637 16.6664 73.0906 16.7662 73.1289 16.8582C73.1673 16.9426 73.221 17.0155 73.29 17.0769C73.3591 17.1306 73.4511 17.1574 73.5662 17.1574C73.7503 17.1574 73.9383 17.0845 74.1301 16.9388C74.3295 16.7853 74.5175 16.5935 74.6939 16.3634C74.878 16.1333 75.0507 15.8878 75.2118 15.6269C75.3729 15.3584 75.5148 15.1053 75.6375 14.8675C75.7603 14.6296 75.8562 14.4302 75.9252 14.2691C76.0019 14.1003 76.0479 14.0044 76.0633 13.9814C76.1247 13.8586 76.1975 13.7973 76.2819 13.7973C76.328 13.7973 76.3702 13.8126 76.4085 13.8433C76.4469 13.874 76.466 13.92 76.466 13.9814C76.466 14.0274 76.4507 14.0811 76.42 14.1425Z" fill="url(#paint2_linear_21_207)"/>
<path d="M68.8137 13.9353C68.7216 14.1655 68.5951 14.4186 68.434 14.6948C68.2805 14.971 68.0926 15.228 67.8701 15.4658C67.6553 15.696 67.4098 15.8916 67.1336 16.0527C66.8575 16.2138 66.5468 16.2943 66.2015 16.2943C66.1018 16.2943 66.0059 16.2867 65.9139 16.2713C65.8295 16.256 65.7451 16.2291 65.6607 16.1908C65.4459 16.513 65.2157 16.816 64.9703 17.0998C64.7324 17.3837 64.4754 17.633 64.1993 17.8478C63.9231 18.0549 63.6316 18.2199 63.3247 18.3426C63.0255 18.4654 62.711 18.5267 62.3811 18.5267C62.0742 18.5267 61.8019 18.473 61.5641 18.3656C61.3339 18.2582 61.1383 18.1086 60.9772 17.9169C60.8161 17.7251 60.6972 17.4988 60.6205 17.2379C60.5361 16.9694 60.4939 16.6779 60.4939 16.3634C60.4939 16.0642 60.5361 15.7075 60.6205 15.2932C60.6972 14.8789 60.8315 14.4417 61.0232 13.9814C61.2074 13.5211 61.4452 13.0531 61.7367 12.5775C62.0359 12.1018 62.4003 11.6531 62.8299 11.2311C63.2595 10.8015 63.7582 10.4179 64.3258 10.0804C64.9012 9.73517 65.5571 9.46283 66.2936 9.26337H66.3857C66.4854 9.26337 66.5774 9.28255 66.6618 9.3209C66.7462 9.35926 66.8191 9.40913 66.8805 9.4705C66.9418 9.53187 66.9879 9.59708 67.0186 9.66612C67.0569 9.73517 67.0761 9.79654 67.0761 9.85024C67.0761 9.97298 67.0416 10.0612 66.9725 10.1149C66.9035 10.1686 66.8038 10.207 66.6733 10.23C66.6043 10.2453 66.4854 10.2683 66.3166 10.299C66.1555 10.322 65.9522 10.3872 65.7067 10.4946C65.4689 10.5944 65.2004 10.7555 64.9012 10.978C64.602 11.1928 64.2875 11.4958 63.9576 11.887C63.7351 12.1479 63.5203 12.4624 63.3132 12.8306C63.1137 13.1912 62.9373 13.5671 62.7839 13.9583C62.6304 14.3496 62.5039 14.7408 62.4041 15.1321C62.3121 15.5157 62.266 15.8609 62.266 16.1678C62.266 16.5743 62.3619 16.8927 62.5537 17.1229C62.7455 17.353 62.9718 17.4681 63.2327 17.4681C63.5165 17.4681 63.8195 17.3185 64.1417 17.0193C64.4716 16.7124 64.7976 16.3058 65.1198 15.7995C64.9664 15.6077 64.8398 15.3699 64.7401 15.0861C64.6404 14.8022 64.5905 14.4647 64.5905 14.0734C64.5905 13.6438 64.6442 13.2142 64.7516 12.7846C64.8667 12.355 65.0163 11.9676 65.2004 11.6224C65.3845 11.2771 65.5916 10.9971 65.8218 10.7823C66.0596 10.5599 66.3013 10.4486 66.5468 10.4486C66.7846 10.4486 66.961 10.556 67.0761 10.7708C67.1988 10.978 67.2602 11.2541 67.2602 11.5993C67.2602 11.8295 67.2295 12.1057 67.1681 12.4279C67.1068 12.7424 67.0186 13.0838 66.9035 13.452C66.7884 13.8203 66.6465 14.2 66.4777 14.5912C66.3166 14.9825 66.1287 15.3661 65.9139 15.742C66.0213 15.7957 66.1478 15.8225 66.2936 15.8225C66.5621 15.8225 66.7999 15.7612 67.007 15.6384C67.2219 15.5157 67.4136 15.3584 67.5824 15.1666C67.7512 14.9748 67.9046 14.76 68.0427 14.5222C68.1808 14.2844 68.3112 14.0504 68.434 13.8203C68.5107 13.6592 68.5912 13.5786 68.6756 13.5786C68.7216 13.5786 68.7638 13.5939 68.8022 13.6246C68.8405 13.6553 68.8597 13.6937 68.8597 13.7397C68.8597 13.8088 68.8444 13.874 68.8137 13.9353ZM65.2579 14.3841C65.2579 14.5682 65.2694 14.737 65.2925 14.8904C65.3155 15.0439 65.3577 15.1743 65.419 15.2817C65.5725 15.0132 65.7144 14.7408 65.8448 14.4647C65.9752 14.1808 66.1018 13.8855 66.2246 13.5786C66.332 13.2948 66.4125 13.0608 66.4662 12.8767C66.5199 12.6849 66.5468 12.5353 66.5468 12.4279C66.5468 12.1747 66.4624 12.0481 66.2936 12.0481C66.1785 12.0481 66.0596 12.1095 65.9369 12.2323C65.8218 12.355 65.7106 12.5238 65.6032 12.7386C65.5034 12.9534 65.419 13.2027 65.35 13.4865C65.2886 13.7627 65.2579 14.0619 65.2579 14.3841Z" fill="url(#paint3_linear_21_207)"/>
<path d="M57.3754 1.8872C57.3908 1.8872 57.4253 1.89103 57.479 1.89871C57.5327 1.89871 57.5864 1.90638 57.6401 1.92172C57.7015 1.93706 57.7552 1.95624 57.8012 1.97926C57.8472 2.00227 57.8702 2.03679 57.8702 2.08282C57.8702 2.14419 57.8396 2.24392 57.7782 2.38201C57.7245 2.51243 57.6516 2.67353 57.5595 2.86532C57.4752 3.05711 57.3754 3.27575 57.2604 3.52124C57.153 3.75905 57.0417 4.00838 56.9266 4.26921C56.3896 5.48899 55.8718 6.70109 55.3732 7.90552C54.8745 9.10995 54.3759 10.3336 53.8772 11.5764C54.606 11.5457 55.2773 11.4037 55.891 11.1506C56.5124 10.8897 57.0762 10.5522 57.5826 10.1379C58.0889 9.716 58.5338 9.23653 58.9174 8.69952C59.3087 8.16252 59.6347 7.59866 59.8955 7.00795C60.1564 6.40957 60.352 5.80352 60.4824 5.1898C60.6205 4.57607 60.6895 3.98536 60.6895 3.41767C60.6895 3.01108 60.6282 2.64668 60.5054 2.32448C60.3903 1.9946 60.2216 1.71459 59.9991 1.48444C59.7766 1.2543 59.5081 1.07785 59.1936 0.955106C58.8867 0.82469 58.5377 0.759482 58.1464 0.759482C57.1798 0.759482 56.2937 0.920584 55.4882 1.24279C54.6904 1.56499 54.0038 2.01761 53.4284 2.60065C52.8607 3.17602 52.4158 3.87029 52.0936 4.68347C51.779 5.49666 51.6218 6.39423 51.6218 7.37618C51.6218 7.5066 51.5911 7.62167 51.5297 7.7214C51.4683 7.82113 51.3648 7.871 51.219 7.871C51.1193 7.871 50.9889 7.83264 50.8278 7.75592C50.6667 7.67154 50.5056 7.56414 50.3445 7.43372C50.191 7.29563 50.0568 7.13837 49.9417 6.96192C49.8343 6.7778 49.7806 6.58602 49.7806 6.38656C49.7806 5.84188 49.9034 5.3087 50.1488 4.78704C50.3943 4.2577 50.7242 3.75522 51.1385 3.27958C51.5604 2.80395 52.0514 2.36667 52.6114 1.96775C53.1714 1.56883 53.7621 1.22361 54.3835 0.932092C55.0126 0.640573 55.657 0.414263 56.3168 0.253161C56.9842 0.0843869 57.6324 0 58.2615 0C59.0823 0 59.7996 0.107402 60.4134 0.322205C61.0348 0.529336 61.5526 0.820855 61.9668 1.19676C62.3811 1.57267 62.6918 2.02145 62.8989 2.54311C63.1061 3.05711 63.2096 3.6248 63.2096 4.2462C63.2096 4.8369 63.1176 5.41227 62.9335 5.97229C62.7493 6.52464 62.4962 7.05014 62.174 7.54879C61.8594 8.04744 61.4835 8.51541 61.0463 8.95268C60.609 9.38996 60.1333 9.79272 59.6194 10.161C59.113 10.5215 58.5799 10.8399 58.0198 11.1161C57.4598 11.3922 56.896 11.6224 56.3283 11.8065C56.6505 11.8755 56.9612 11.9906 57.2604 12.1517C57.5672 12.3051 57.8357 12.5008 58.0659 12.7386C58.3037 12.9687 58.4916 13.2411 58.6297 13.5556C58.7678 13.8625 58.8369 14.2 58.8369 14.5682C58.8369 15.3277 58.7026 15.999 58.4341 16.582C58.1656 17.1651 57.8089 17.6714 57.3639 18.101C56.919 18.5306 56.405 18.8912 55.8219 19.1827C55.2389 19.4742 54.629 19.7082 53.9923 19.8846C53.3632 20.0687 52.7303 20.1992 52.0936 20.2759C51.4568 20.3526 50.8585 20.3909 50.2984 20.3909C50.0069 20.3909 49.7307 20.3871 49.4699 20.3794C49.2091 20.3718 48.9521 20.3564 48.6989 20.3334C48.4458 20.3181 48.1964 20.2912 47.9509 20.2529C47.6978 20.2145 47.437 20.1646 47.1684 20.1033C47.0841 20.0802 47.0112 20.0419 46.9498 19.9882C46.8884 19.9345 46.8654 19.8654 46.8808 19.7811C46.9038 19.6353 46.9652 19.5164 47.0649 19.4243C47.1569 19.3399 47.3065 19.3169 47.5137 19.3553C47.5981 19.3706 47.7131 19.386 47.8589 19.4013C48.0046 19.4243 48.1657 19.4473 48.3422 19.4704C48.9329 18.1355 49.5006 16.8122 50.0453 15.5003C50.5976 14.1885 51.1193 12.9342 51.6103 11.7375C52.1089 10.533 52.5692 9.4053 52.9911 8.3543C53.4208 7.3033 53.8043 6.36738 54.1419 5.54652C54.4794 4.72567 54.7709 4.0429 55.0164 3.49822C55.2619 2.94587 55.4499 2.5738 55.5803 2.38201C55.6263 2.32064 55.7184 2.25927 55.8565 2.1979C56.0022 2.13652 56.1633 2.08282 56.3398 2.03679C56.5162 1.99076 56.6965 1.95624 56.8806 1.93323C57.0724 1.90254 57.2373 1.8872 57.3754 1.8872ZM56.3513 14.4992C56.3513 14.1156 56.2822 13.7819 56.1441 13.4981C56.0061 13.2142 55.8143 12.9764 55.5688 12.7846C55.331 12.5928 55.0433 12.4509 54.7057 12.3588C54.3759 12.2591 54.0153 12.2016 53.624 12.1862C53.1484 13.406 52.6804 14.6335 52.2202 15.8686C51.7675 17.1037 51.3149 18.3772 50.8623 19.689C51.6064 19.666 52.3122 19.5356 52.9796 19.2978C53.6471 19.0676 54.2301 18.7339 54.7288 18.2966C55.2274 17.867 55.6225 17.3338 55.914 16.6971C56.2055 16.0604 56.3513 15.3277 56.3513 14.4992Z" fill="url(#paint4_linear_21_207)"/>
<path d="M48.4112 14.1425C48.2578 14.526 48.0507 14.9595 47.7898 15.4428C47.5367 15.9184 47.226 16.371 46.8578 16.8007C46.4895 17.2226 46.0637 17.5793 45.5804 17.8708C45.0971 18.1547 44.5486 18.2966 43.9349 18.2966C43.6127 18.2966 43.3173 18.2429 43.0488 18.1355C42.7803 18.0358 42.531 17.8708 42.3009 17.6407C42.0784 17.4105 41.8636 17.1114 41.6564 16.7431C41.457 16.3749 41.2575 15.9261 41.0581 15.3968C41.0351 15.32 41.012 15.2318 40.989 15.1321C40.9583 15.0324 40.943 14.925 40.943 14.8099C40.943 14.6411 40.966 14.4647 41.012 14.2806C41.0504 14.0888 41.1271 13.9162 41.2422 13.7627C41.2882 13.709 41.3419 13.6477 41.4033 13.5786C41.4647 13.5019 41.5299 13.429 41.5989 13.36C41.6603 13.2833 41.7255 13.218 41.7945 13.1643C41.8636 13.103 41.925 13.0608 41.9787 13.0378C42.1014 12.846 42.2318 12.6312 42.3699 12.3934C42.508 12.1555 42.6422 11.91 42.7727 11.6569C42.9031 11.3961 43.0258 11.1314 43.1409 10.8629C43.256 10.5944 43.348 10.3297 43.4171 10.0689C43.4401 9.96148 43.4593 9.85791 43.4746 9.75818C43.4899 9.65845 43.5091 9.57407 43.5321 9.50502C43.5475 9.44365 43.5935 9.35159 43.6702 9.22885C43.7469 9.1061 43.8352 8.97185 43.9349 8.82609C44.0423 8.68033 44.1497 8.53074 44.2571 8.37731C44.3722 8.22388 44.4757 8.08962 44.5678 7.97455C44.6982 7.79811 44.8095 7.67152 44.9015 7.59481C44.9936 7.51809 45.0856 7.47974 45.1777 7.47974C45.2851 7.47974 45.3695 7.51426 45.4308 7.5833C45.4999 7.64467 45.5344 7.70988 45.5344 7.77893C45.5344 7.8403 45.5229 7.90167 45.4999 7.96304C45.4769 8.02442 45.4654 8.13565 45.4654 8.29676C45.4654 8.44251 45.4769 8.61129 45.4999 8.80308C45.5229 8.99487 45.5651 9.19816 45.6265 9.41296C45.6648 9.57407 45.7262 9.8349 45.8106 10.1955C45.895 10.5484 45.9794 10.9511 46.0637 11.4037C46.1481 11.8563 46.221 12.332 46.2824 12.8306C46.3514 13.3293 46.386 13.7972 46.386 14.2345C46.386 14.4647 46.3514 14.7178 46.2824 14.994C46.221 15.2625 46.129 15.5349 46.0062 15.811C45.8911 16.0795 45.7492 16.3404 45.5804 16.5935C45.4117 16.839 45.2237 17.0538 45.0166 17.2379C45.3618 17.2072 45.6725 17.1075 45.9487 16.9387C46.2249 16.77 46.4818 16.5437 46.7197 16.2598C46.9652 15.976 47.1953 15.6423 47.4101 15.2587C47.6249 14.8751 47.8397 14.4493 48.0545 13.9814C48.1159 13.8586 48.1849 13.7972 48.2616 13.7972C48.3153 13.7972 48.3614 13.8126 48.3997 13.8433C48.4381 13.874 48.4573 13.92 48.4573 13.9814C48.4573 14.0274 48.4419 14.0811 48.4112 14.1425ZM44.073 10.5177C43.9579 10.7171 43.8275 10.9396 43.6817 11.1851C43.5436 11.4306 43.3979 11.6876 43.2445 11.9561C43.091 12.2169 42.9376 12.4816 42.7842 12.7501C42.6307 13.0186 42.485 13.2717 42.3469 13.5096C42.4083 13.6783 42.4696 13.8701 42.531 14.0849C42.5924 14.2997 42.6576 14.5069 42.7266 14.7063C42.7957 14.9135 42.8686 15.1321 42.9453 15.3622C43.0297 15.5924 43.1217 15.8187 43.2214 16.0412C43.3288 16.256 43.4516 16.4554 43.5897 16.6396C43.7278 16.816 43.8965 16.9579 44.096 17.0653C44.2878 16.8045 44.4297 16.5053 44.5218 16.1678C44.6138 15.8302 44.6599 15.5003 44.6599 15.1781C44.6599 14.7562 44.6522 14.3649 44.6368 14.0044C44.6215 13.6361 44.5908 13.2717 44.5448 12.9112C44.5064 12.5506 44.4489 12.1786 44.3722 11.795C44.2955 11.4114 44.1957 10.9856 44.073 10.5177Z" fill="url(#paint5_linear_21_207)"/>
<path d="M41.806 14.1425C41.6449 14.5721 41.4416 15.0209 41.1962 15.4888C40.9583 15.9568 40.6937 16.3864 40.4022 16.7777C40.1106 17.1612 39.7999 17.4796 39.4701 17.7328C39.1402 17.9783 38.8103 18.101 38.4804 18.101C38.258 18.101 38.0738 18.0473 37.9281 17.9399C37.7823 17.8248 37.6634 17.6867 37.5714 17.5256C37.487 17.3569 37.4256 17.1766 37.3872 16.9848C37.3489 16.793 37.3297 16.6166 37.3297 16.4555C37.3297 16.21 37.3566 15.9261 37.4103 15.6039C37.4716 15.2817 37.5867 14.9135 37.7555 14.4992C37.4946 14.8521 37.2185 15.2127 36.9269 15.5809C36.6431 15.9415 36.3516 16.2675 36.0524 16.559C35.7609 16.8505 35.4655 17.0922 35.1663 17.284C34.8748 17.4681 34.5986 17.5602 34.3378 17.5602C34.2151 17.5602 34.0846 17.5295 33.9466 17.4681C33.8085 17.3991 33.6819 17.3032 33.5668 17.1804C33.4441 17.05 33.3443 16.8927 33.2676 16.7086C33.1909 16.5168 33.1525 16.2982 33.1525 16.0527C33.1525 15.6384 33.2484 15.182 33.4402 14.6833C33.632 14.177 33.8737 13.6707 34.1652 13.1644C34.4644 12.6581 34.7943 12.1671 35.1548 11.6914C35.5154 11.2158 35.8644 10.8015 36.202 10.4486C36.5088 10.1188 36.7965 9.83876 37.065 9.60861C37.3412 9.37847 37.5982 9.19435 37.836 9.05626C38.0815 8.9105 38.3117 8.80694 38.5265 8.74557C38.7413 8.67652 38.9484 8.63816 39.1479 8.63049C39.332 8.63049 39.4854 8.65351 39.6081 8.69954C39.7309 8.73789 39.8268 8.7916 39.8958 8.86064C39.9649 8.92968 40.0109 9.01023 40.0339 9.10229C40.0646 9.19435 40.0799 9.29025 40.0799 9.38998C40.0799 9.49738 40.0493 9.63546 39.9879 9.80424C39.9265 9.97301 39.8421 10.1418 39.7347 10.3106C39.6273 10.4793 39.5007 10.6251 39.355 10.7478C39.2169 10.8629 39.0673 10.9204 38.9062 10.9204C38.8448 10.9204 38.8065 10.8974 38.7911 10.8514C38.7758 10.8054 38.7681 10.7478 38.7681 10.6788C38.7681 10.5484 38.7835 10.3949 38.8141 10.2185C38.8448 10.0421 38.8602 9.88863 38.8602 9.75821C38.8602 9.64314 38.8448 9.56258 38.8141 9.51656C38.7911 9.46285 38.7374 9.436 38.653 9.436C38.4536 9.52039 38.2388 9.68533 38.0086 9.93082C37.7862 10.1686 37.5637 10.4525 37.3412 10.7824C37.1187 11.1046 36.9039 11.4575 36.6968 11.841C36.4973 12.2169 36.3171 12.5928 36.156 12.9687C36.0025 13.337 35.8798 13.6899 35.7877 14.0274C35.6957 14.3573 35.6496 14.6335 35.6496 14.8559C35.6496 15.017 35.6726 15.1436 35.7187 15.2357C35.7647 15.3277 35.8222 15.3738 35.8913 15.3738C35.945 15.3738 36.0294 15.3239 36.1444 15.2242C36.2595 15.1244 36.3899 14.994 36.5357 14.8329C36.6891 14.6718 36.8464 14.4915 37.0075 14.2921C37.1686 14.085 37.3259 13.8817 37.4793 13.6822C37.6404 13.4827 37.7862 13.2948 37.9166 13.1183C38.047 12.9419 38.1506 12.7961 38.2273 12.6811C38.4267 12.3895 38.5648 12.1632 38.6415 12.0021C38.7259 11.841 38.8141 11.7605 38.9062 11.7605C38.9446 11.7605 38.9983 11.7912 39.0673 11.8525C39.144 11.9139 39.2169 11.9868 39.2859 12.0712C39.3627 12.1479 39.4279 12.2284 39.4816 12.3128C39.5353 12.3972 39.5621 12.4586 39.5621 12.4969C39.5621 12.6043 39.5123 12.7578 39.4125 12.9572C39.3128 13.149 39.1747 13.4597 38.9983 13.8893C38.7988 14.3496 38.6492 14.7792 38.5495 15.1782C38.4574 15.5771 38.4114 15.93 38.4114 16.2368C38.4114 16.3442 38.4191 16.4516 38.4344 16.559C38.4497 16.6664 38.4766 16.7662 38.515 16.8582C38.5533 16.9426 38.607 17.0155 38.6761 17.0769C38.7451 17.1306 38.8372 17.1574 38.9522 17.1574C39.1363 17.1574 39.3243 17.0845 39.5161 16.9388C39.7155 16.7853 39.9035 16.5935 40.0799 16.3634C40.2641 16.1333 40.4367 15.8878 40.5978 15.6269C40.7589 15.3584 40.9008 15.1053 41.0235 14.8675C41.1463 14.6296 41.2422 14.4302 41.3112 14.2691C41.3879 14.1003 41.434 14.0044 41.4493 13.9814C41.5107 13.8586 41.5836 13.7973 41.668 13.7973C41.714 13.7973 41.7562 13.8126 41.7945 13.8433C41.8329 13.874 41.8521 13.92 41.8521 13.9814C41.8521 14.0274 41.8367 14.0811 41.806 14.1425Z" fill="url(#paint6_linear_21_207)"/>
<path d="M33.0145 10.6557C33.0145 10.7478 32.9953 10.9358 32.9569 11.2196C32.9262 11.4958 32.8687 11.8256 32.7843 12.2092C32.7076 12.5851 32.5964 12.9956 32.4506 13.4405C32.3048 13.8855 32.1246 14.3227 31.9098 14.7523C31.5722 15.4198 31.2385 15.9836 30.9086 16.4439C30.5788 16.8965 30.2642 17.2648 29.965 17.5486C29.6658 17.8325 29.3858 18.0358 29.125 18.1585C28.8642 18.2812 28.6379 18.3426 28.4461 18.3426C28.1622 18.3426 27.9167 18.2697 27.7096 18.124C27.5025 17.9859 27.3299 17.7864 27.1918 17.5256C27.0537 17.2571 26.9501 16.9349 26.8811 16.559C26.812 16.1831 26.7775 15.765 26.7775 15.3047C26.7775 14.8981 26.8044 14.4723 26.8581 14.0274C26.9118 13.5824 26.9923 13.1183 27.0997 12.635C27.2071 12.1824 27.3414 11.7489 27.5025 11.3347C27.6712 10.9127 27.8362 10.5368 27.9973 10.207C28.1661 9.86941 28.3195 9.5894 28.4576 9.36692C28.5957 9.13678 28.6877 8.98718 28.7337 8.91814C28.8028 8.81074 28.868 8.71868 28.9294 8.64196C28.9907 8.55757 29.0636 8.51538 29.148 8.51538C29.2171 8.51538 29.3091 8.5921 29.4242 8.74553C29.5469 8.89129 29.6697 9.06006 29.7924 9.25185C29.9152 9.43597 30.0187 9.62008 30.1031 9.8042C30.1952 9.98832 30.2412 10.1149 30.2412 10.1839C30.2412 10.3144 30.1722 10.5138 30.0341 10.7823C29.9037 11.0508 29.7656 11.3615 29.6198 11.7144C29.4817 12.0596 29.336 12.4432 29.1825 12.8651C29.0291 13.2794 28.8833 13.6937 28.7453 14.1079C28.6148 14.5145 28.5036 14.9058 28.4115 15.2817C28.3272 15.6576 28.285 15.976 28.285 16.2368C28.285 16.5513 28.3348 16.7891 28.4346 16.9502C28.542 17.1037 28.6724 17.1804 28.8258 17.1804C28.9409 17.1804 29.0828 17.1113 29.2516 16.9733C29.4203 16.8275 29.5968 16.6204 29.7809 16.3519C29.965 16.0834 30.1491 15.7535 30.3333 15.3622C30.5174 14.971 30.6823 14.526 30.8281 14.0274C30.9738 13.5134 31.0812 13.0723 31.1503 12.704C31.227 12.3358 31.2807 12.0251 31.3114 11.7719C31.3497 11.5188 31.3804 11.3155 31.4034 11.1621C31.4265 11.0086 31.461 10.8859 31.507 10.7938C31.5607 10.6941 31.6374 10.6174 31.7372 10.5637C31.8446 10.51 31.998 10.4563 32.1974 10.4026C32.3509 10.3489 32.4966 10.322 32.6347 10.322C32.8879 10.322 33.0145 10.4333 33.0145 10.6557Z" fill="url(#paint7_linear_21_207)"/>
<path d="M27.1572 14.1425C26.8887 14.7485 26.5934 15.32 26.2712 15.857C25.9566 16.3864 25.6268 16.8505 25.2816 17.2494C24.9363 17.6407 24.5834 17.9514 24.2229 18.1815C23.8623 18.4117 23.5056 18.5267 23.1527 18.5267C22.9072 18.5267 22.6924 18.4769 22.5083 18.3771C22.3318 18.2774 22.1823 18.1393 22.0595 17.9629C21.9444 17.7864 21.8562 17.5755 21.7948 17.33C21.7411 17.0845 21.7143 16.816 21.7143 16.5245C21.7143 16.1255 21.791 15.6883 21.9444 15.2126C22.1055 14.7293 22.305 14.2383 22.5428 13.7397C22.7883 13.241 23.0568 12.7501 23.3483 12.2668C23.6475 11.7835 23.9352 11.3347 24.2114 10.9204C24.0196 11.0508 23.7971 11.2158 23.544 11.4152C23.2985 11.6147 23.0376 11.8333 22.7615 12.0711C22.493 12.309 22.2168 12.5621 21.9329 12.8306C21.6491 13.0915 21.3806 13.3523 21.1274 13.6131C20.8743 13.8663 20.6403 14.1118 20.4255 14.3496C20.2107 14.5874 20.0342 14.8022 19.8961 14.994C19.4742 15.5694 19.129 16.0872 18.8605 16.5475C18.592 17.0078 18.381 17.3837 18.2276 17.6752C18.1202 17.89 18.0128 18.0358 17.9054 18.1125C17.798 18.1892 17.6867 18.2275 17.5717 18.2275C17.4719 18.2275 17.3684 18.1969 17.261 18.1355C17.1536 18.0818 17.0999 17.9782 17.0999 17.8248C17.0999 17.7327 17.1421 17.5448 17.2264 17.2609C17.3108 16.9771 17.4259 16.6395 17.5717 16.2483C17.7097 15.8494 17.8708 15.4121 18.055 14.9365C18.2314 14.4608 18.4194 13.9813 18.6188 13.498C18.8106 13.0071 19.0024 12.5314 19.1942 12.0711C19.386 11.6032 19.5624 11.1851 19.7235 10.8168C19.8846 10.4486 20.0227 10.1456 20.1378 9.90776C20.2529 9.66227 20.3296 9.52035 20.3679 9.48199C20.4677 9.38226 20.6288 9.36308 20.8512 9.42446C21.0814 9.48583 21.3077 9.58172 21.5302 9.71214C21.6376 9.78118 21.7181 9.85023 21.7718 9.91927C21.8332 9.98831 21.8792 10.0535 21.9099 10.1149C21.9253 10.1533 21.9291 10.1878 21.9214 10.2185C21.9137 10.2491 21.9022 10.276 21.8869 10.299C21.8639 10.322 21.7757 10.4601 21.6222 10.7133C21.4688 10.9588 21.2808 11.2771 21.0584 11.6684C20.8359 12.052 20.5904 12.4854 20.3219 12.9687C20.0534 13.452 19.7964 13.9392 19.5509 14.4301C19.9191 13.9238 20.2759 13.4712 20.6211 13.0723C20.9663 12.6734 21.2732 12.3281 21.5417 12.0366C21.8485 11.7067 22.1439 11.4114 22.4277 11.1506C23.2486 10.4294 23.8853 9.89242 24.338 9.53953C24.7982 9.18664 25.1511 9.01019 25.3966 9.01019C25.4964 9.01019 25.5999 9.04471 25.7073 9.11376C25.8224 9.17513 25.926 9.25952 26.018 9.36692C26.1101 9.47432 26.1868 9.59707 26.2482 9.73515C26.3095 9.87324 26.3402 10.0152 26.3402 10.1609C26.3402 10.3067 26.2712 10.5061 26.1331 10.7593C25.995 11.0048 25.8224 11.2963 25.6153 11.6339C25.4081 11.9637 25.1818 12.332 24.9363 12.7386C24.6908 13.1375 24.4645 13.5594 24.2574 14.0044C24.0503 14.4493 23.8777 14.9096 23.7396 15.3852C23.6015 15.8609 23.5324 16.3365 23.5324 16.8121C23.5324 17.0346 23.5631 17.2264 23.6245 17.3875C23.6935 17.5486 23.8048 17.6292 23.9582 17.6292C24.1193 17.6292 24.3188 17.5179 24.5566 17.2955C24.8021 17.073 25.0552 16.7853 25.3161 16.4324C25.5846 16.0795 25.8492 15.6883 26.1101 15.2587C26.3786 14.8214 26.6126 14.3956 26.812 13.9813C26.8734 13.8586 26.9424 13.7972 27.0192 13.7972C27.0575 13.7972 27.0959 13.8126 27.1342 13.8433C27.1803 13.8663 27.2033 13.9123 27.2033 13.9813C27.2033 14.0274 27.1879 14.0811 27.1572 14.1425Z" fill="url(#paint8_linear_21_207)"/>
<path d="M18.8375 14.1425C18.6764 14.5721 18.4731 15.0209 18.2276 15.4888C17.9898 15.9568 17.7251 16.3864 17.4336 16.7777C17.1421 17.1612 16.8314 17.4796 16.5015 17.7328C16.1716 17.9783 15.8417 18.101 15.5118 18.101C15.2894 18.101 15.1053 18.0473 14.9595 17.9399C14.8137 17.8248 14.6948 17.6867 14.6028 17.5256C14.5184 17.3569 14.457 17.1766 14.4187 16.9848C14.3803 16.793 14.3611 16.6166 14.3611 16.4555C14.3611 16.21 14.388 15.9261 14.4417 15.6039C14.503 15.2817 14.6181 14.9135 14.7869 14.4992C14.5261 14.8521 14.2499 15.2127 13.9584 15.5809C13.6745 15.9415 13.383 16.2675 13.0838 16.559C12.7923 16.8505 12.4969 17.0922 12.1977 17.284C11.9062 17.4681 11.6301 17.5602 11.3692 17.5602C11.2465 17.5602 11.1161 17.5295 10.978 17.4681C10.8399 17.3991 10.7133 17.3032 10.5982 17.1804C10.4755 17.05 10.3758 16.8927 10.299 16.7086C10.2223 16.5168 10.184 16.2982 10.184 16.0527C10.184 15.6384 10.2799 15.182 10.4716 14.6833C10.6634 14.177 10.9051 13.6707 11.1966 13.1644C11.4958 12.6581 11.8257 12.1671 12.1862 11.6914C12.5468 11.2158 12.8959 10.8015 13.2334 10.4486C13.5403 10.1188 13.8279 9.83876 14.0964 9.60861C14.3726 9.37847 14.6296 9.19435 14.8674 9.05626C15.1129 8.9105 15.3431 8.80694 15.5579 8.74557C15.7727 8.67652 15.9798 8.63816 16.1793 8.63049C16.3634 8.63049 16.5168 8.65351 16.6396 8.69954C16.7623 8.73789 16.8582 8.7916 16.9272 8.86064C16.9963 8.92968 17.0423 9.01023 17.0653 9.10229C17.096 9.19435 17.1114 9.29025 17.1114 9.38998C17.1114 9.49738 17.0807 9.63546 17.0193 9.80424C16.9579 9.97301 16.8735 10.1418 16.7661 10.3106C16.6587 10.4793 16.5322 10.6251 16.3864 10.7478C16.2483 10.8629 16.0987 10.9204 15.9376 10.9204C15.8762 10.9204 15.8379 10.8974 15.8225 10.8514C15.8072 10.8054 15.7995 10.7478 15.7995 10.6788C15.7995 10.5484 15.8149 10.3949 15.8456 10.2185C15.8762 10.0421 15.8916 9.88863 15.8916 9.75821C15.8916 9.64314 15.8762 9.56258 15.8456 9.51656C15.8225 9.46285 15.7688 9.436 15.6845 9.436C15.485 9.52039 15.2702 9.68533 15.04 9.93082C14.8176 10.1686 14.5951 10.4525 14.3726 10.7824C14.1502 11.1046 13.9353 11.4575 13.7282 11.841C13.5288 12.2169 13.3485 12.5928 13.1874 12.9687C13.0339 13.337 12.9112 13.6899 12.8191 14.0274C12.7271 14.3573 12.6811 14.6335 12.6811 14.8559C12.6811 15.017 12.7041 15.1436 12.7501 15.2357C12.7961 15.3277 12.8537 15.3738 12.9227 15.3738C12.9764 15.3738 13.0608 15.3239 13.1759 15.2242C13.2909 15.1244 13.4214 14.994 13.5671 14.8329C13.7205 14.6718 13.8778 14.4915 14.0389 14.2921C14.2 14.085 14.3573 13.8817 14.5107 13.6822C14.6718 13.4827 14.8176 13.2948 14.948 13.1183C15.0784 12.9419 15.182 12.7961 15.2587 12.6811C15.4581 12.3895 15.5962 12.1632 15.673 12.0021C15.7573 11.841 15.8456 11.7605 15.9376 11.7605C15.976 11.7605 16.0297 11.7912 16.0987 11.8525C16.1754 11.9139 16.2483 11.9868 16.3174 12.0712C16.3941 12.1479 16.4593 12.2284 16.513 12.3128C16.5667 12.3972 16.5935 12.4586 16.5935 12.4969C16.5935 12.6043 16.5437 12.7578 16.4439 12.9572C16.3442 13.149 16.2061 13.4597 16.0297 13.8893C15.8302 14.3496 15.6806 14.7792 15.5809 15.1782C15.4888 15.5771 15.4428 15.93 15.4428 16.2368C15.4428 16.3442 15.4505 16.4516 15.4658 16.559C15.4812 16.6664 15.508 16.7662 15.5464 16.8582C15.5847 16.9426 15.6384 17.0155 15.7075 17.0769C15.7765 17.1306 15.8686 17.1574 15.9836 17.1574C16.1678 17.1574 16.3557 17.0845 16.5475 16.9388C16.747 16.7853 16.9349 16.5935 17.1114 16.3634C17.2955 16.1333 17.4681 15.8878 17.6292 15.6269C17.7903 15.3584 17.9322 15.1053 18.055 14.8675C18.1777 14.6296 18.2736 14.4302 18.3426 14.2691C18.4194 14.1003 18.4654 14.0044 18.4807 13.9814C18.5421 13.8586 18.615 13.7973 18.6994 13.7973C18.7454 13.7973 18.7876 13.8126 18.826 13.8433C18.8643 13.874 18.8835 13.92 18.8835 13.9814C18.8835 14.0274 18.8681 14.0811 18.8375 14.1425Z" fill="url(#paint9_linear_21_207)"/>
<path d="M2.75025 16.9502C2.75025 17.2341 2.76943 17.4988 2.80778 17.7442C2.84614 17.9821 2.91902 18.1892 3.02642 18.3656C3.13382 18.5498 3.27575 18.6917 3.45219 18.7914C3.63631 18.8988 3.87413 18.9525 4.16565 18.9525C4.51854 18.9525 4.86759 18.8259 5.21281 18.5728C5.5657 18.3273 5.89941 18.0204 6.21395 17.6522C6.53615 17.2763 6.83918 16.8697 7.12302 16.4324C7.41454 15.9951 7.67537 15.5924 7.90552 15.2241C8.13567 14.8482 8.33513 14.5375 8.5039 14.2921C8.67267 14.0389 8.79925 13.9123 8.88364 13.9123C8.922 13.9123 8.97186 13.9238 9.03324 13.9468C9.09461 13.9622 9.14831 13.989 9.19434 14.0274C9.24037 14.0657 9.27105 14.1194 9.2864 14.1885C9.30174 14.2575 9.2864 14.3381 9.24037 14.4301C9.01789 14.8674 8.76857 15.3239 8.49239 15.7995C8.22389 16.2751 7.93237 16.7431 7.61784 17.2034C7.3033 17.656 6.96959 18.0895 6.6167 18.5037C6.26381 18.918 5.89558 19.2824 5.512 19.5969C5.12842 19.9115 4.7295 20.1608 4.31524 20.3449C3.90865 20.529 3.49055 20.6211 3.06094 20.6211C2.60065 20.6211 2.18255 20.5444 1.80665 20.3909C1.43074 20.2375 1.10854 20.0035 0.840033 19.689C0.57153 19.3745 0.364398 18.9717 0.218639 18.4807C0.0728796 17.9897 0 17.4105 0 16.7431C0 15.8609 0.111237 14.9518 0.333712 14.0159C0.556186 13.08 0.863048 12.144 1.2543 11.2081C1.64555 10.2645 2.102 9.34008 2.62367 8.43484C3.14533 7.5296 3.70535 6.67422 4.30373 5.86871C4.90978 5.05552 5.53501 4.30755 6.17942 3.62478C6.8315 2.94202 7.47591 2.35131 8.11265 1.85266C8.74939 1.35401 9.36695 0.966594 9.96533 0.690419C10.5637 0.406572 11.1122 0.264648 11.6109 0.264648C11.9945 0.264648 12.3128 0.322185 12.566 0.437258C12.8191 0.54466 13.0186 0.686583 13.1644 0.863028C13.3178 1.03947 13.4214 1.24277 13.4751 1.47292C13.5364 1.69539 13.5671 1.9217 13.5671 2.15185C13.5671 2.55844 13.5096 2.93818 13.3945 3.29107C13.2871 3.63629 13.1452 3.95082 12.9687 4.23467C12.7923 4.51084 12.5967 4.75633 12.3819 4.97114C12.1671 5.18594 11.9561 5.36622 11.749 5.51198C11.5418 5.65774 11.3462 5.76898 11.1621 5.84569C10.9856 5.91474 10.8476 5.94926 10.7478 5.94926C10.6404 5.94926 10.5637 5.93775 10.5177 5.91474C10.4793 5.89172 10.4601 5.81501 10.4601 5.68459C10.4908 5.45444 10.5752 5.22813 10.7133 5.00566C10.8514 4.77551 10.9972 4.53002 11.1506 4.26919C11.304 4.00836 11.4383 3.71684 11.5533 3.39464C11.6761 3.07243 11.7375 2.7042 11.7375 2.28993C11.7375 2.18253 11.7259 2.0713 11.7029 1.95622C11.6876 1.83348 11.6569 1.72224 11.6109 1.62251C11.5725 1.52278 11.515 1.44223 11.4383 1.38086C11.3615 1.31181 11.2657 1.27729 11.1506 1.27729C10.8207 1.27729 10.4486 1.41921 10.0344 1.70306C9.62011 1.98691 9.18283 2.38199 8.72254 2.88831C8.26992 3.38696 7.80579 3.97767 7.33015 4.66044C6.86219 5.33554 6.40573 6.06817 5.96079 6.85834C5.52351 7.6485 5.10924 8.48087 4.718 9.35542C4.32675 10.2223 3.98536 11.093 3.69385 11.9676C3.40233 12.8421 3.17218 13.7052 3.00341 14.5567C2.83463 15.4006 2.75025 16.1984 2.75025 16.9502Z" fill="url(#paint10_linear_21_207)"/>
<defs>
<linearGradient id="paint0_linear_21_207" x1="0.586862" y1="10.4345" x2="136.752" y2="10.4345" gradientUnits="userSpaceOnUse">
<stop stop-color="#2BC0E4"/>
<stop offset="1" stop-color="#EAECC6"/>
</linearGradient>
<linearGradient id="paint1_linear_21_207" x1="0.586869" y1="10.4346" x2="136.752" y2="10.4346" gradientUnits="userSpaceOnUse">
<stop stop-color="#2BC0E4"/>
<stop offset="1" stop-color="#EAECC6"/>
</linearGradient>
<linearGradient id="paint2_linear_21_207" x1="0.586871" y1="10.4346" x2="136.752" y2="10.4346" gradientUnits="userSpaceOnUse">
<stop stop-color="#2BC0E4"/>
<stop offset="1" stop-color="#EAECC6"/>
</linearGradient>
<linearGradient id="paint3_linear_21_207" x1="0.58687" y1="10.4346" x2="136.752" y2="10.4346" gradientUnits="userSpaceOnUse">
<stop stop-color="#2BC0E4"/>
<stop offset="1" stop-color="#EAECC6"/>
</linearGradient>
<linearGradient id="paint4_linear_21_207" x1="0.586873" y1="10.4346" x2="136.752" y2="10.4346" gradientUnits="userSpaceOnUse">
<stop stop-color="#2BC0E4"/>
<stop offset="1" stop-color="#EAECC6"/>
</linearGradient>
<linearGradient id="paint5_linear_21_207" x1="0.586873" y1="10.4346" x2="136.752" y2="10.4346" gradientUnits="userSpaceOnUse">
<stop stop-color="#2BC0E4"/>
<stop offset="1" stop-color="#EAECC6"/>
</linearGradient>
<linearGradient id="paint6_linear_21_207" x1="0.586874" y1="10.4346" x2="136.752" y2="10.4346" gradientUnits="userSpaceOnUse">
<stop stop-color="#2BC0E4"/>
<stop offset="1" stop-color="#EAECC6"/>
</linearGradient>
<linearGradient id="paint7_linear_21_207" x1="0.586874" y1="10.4345" x2="136.752" y2="10.4345" gradientUnits="userSpaceOnUse">
<stop stop-color="#2BC0E4"/>
<stop offset="1" stop-color="#EAECC6"/>
</linearGradient>
<linearGradient id="paint8_linear_21_207" x1="0.586873" y1="10.4345" x2="136.752" y2="10.4345" gradientUnits="userSpaceOnUse">
<stop stop-color="#2BC0E4"/>
<stop offset="1" stop-color="#EAECC6"/>
</linearGradient>
<linearGradient id="paint9_linear_21_207" x1="0.586872" y1="10.4346" x2="136.752" y2="10.4346" gradientUnits="userSpaceOnUse">
<stop stop-color="#2BC0E4"/>
<stop offset="1" stop-color="#EAECC6"/>
</linearGradient>
<linearGradient id="paint10_linear_21_207" x1="0.586873" y1="10.4346" x2="136.752" y2="10.4346" gradientUnits="userSpaceOnUse">
<stop stop-color="#2BC0E4"/>
<stop offset="1" stop-color="#EAECC6"/>
</linearGradient>
</defs>
</svg>
